<?xml version="1.0" standalone="no"?>
<!DOCTYPE svg PUBLIC "-//W3C//DTD SVG 20010904//EN"
 "http://www.w3.org/TR/2001/REC-SVG-20010904/DTD/svg10.dtd">
<svg version="1.0" xmlns="http://www.w3.org/2000/svg"
 width="500.000000pt" height="500.000000pt" viewBox="0 0 500.000000 500.000000"
 preserveAspectRatio="xMidYMid meet">

<g transform="translate(0.000000,500.000000) scale(0.100000,-0.100000)"
fill="#000000" stroke="none">
<path d="M2472 4124 c-5 -11 -26 -77 -45 -149 -88 -319 -105 -455 -69 -527 11
-20 39 -60 64 -90 25 -29 51 -64 59 -78 30 -56 20 -535 -17 -806 -22 -159 0
-224 77 -224 71 0 97 74 77 215 -18 128 -18 735 1 788 8 23 41 66 85 110 93
92 110 124 110 207 0 73 -12 114 -62 217 -38 78 -166 255 -230 317 -37 35 -41
37 -50 20z"/>
<path d="M1982 2184 c-20 -14 -22 -24 -22 -99 0 -109 9 -131 57 -144 35 -9
271 -21 785 -38 253 -8 248 -10 248 117 0 78 -3 92 -22 115 l-23 25 -465 20
c-559 24 -530 24 -558 4z"/>
<path d="M2140 1860 c-20 -20 -22 -29 -15 -92 8 -85 12 -95 38 -110 24 -12
605 -41 655 -32 50 10 65 40 60 124 -2 44 -9 75 -19 85 -12 12 -63 17 -244 25
-127 5 -280 12 -342 15 -106 6 -113 5 -133 -15z"/>
<path d="M2442 1578 c-18 -18 -14 -56 8 -78 16 -16 33 -20 81 -20 33 0 69 5
80 10 27 15 25 64 -3 84 -27 19 -148 22 -166 4z"/>
<path d="M2560 1220 c-24 -24 -25 -38 -5 -67 14 -21 14 -24 -5 -43 -25 -25
-26 -62 -2 -83 21 -19 82 -23 99 -6 8 8 13 8 17 0 10 -15 46 -14 46 2 0 7 -4
17 -10 23 -6 6 -6 21 -1 42 8 28 7 32 -10 32 -11 0 -19 -7 -19 -16 0 -19 -20
-14 -34 9 -8 12 -6 21 7 35 22 24 22 55 -1 75 -25 23 -58 21 -82 -3z m60 -29
c0 -5 -3 -17 -6 -25 -5 -13 -9 -14 -20 -5 -21 17 -17 39 6 39 11 0 20 -4 20
-9z m-6 -110 c21 -23 14 -41 -15 -41 -22 0 -34 22 -25 45 7 20 19 19 40 -4z"/>
<path d="M710 1120 c0 -103 1 -110 20 -110 17 0 19 8 22 70 l3 70 53 -70 c34
-43 61 -70 73 -70 18 0 19 9 19 110 0 102 -1 110 -20 110 -17 0 -19 -8 -22
-67 l-3 -67 -53 67 c-33 41 -61 67 -73 67 -18 0 -19 -8 -19 -110z"/>
<path d="M1120 1173 c0 -114 30 -163 98 -163 73 0 102 43 102 150 0 68 -1 70
-25 70 -25 0 -25 -1 -25 -78 0 -86 -8 -102 -52 -102 -37 0 -48 24 -48 109 0
69 -1 71 -25 71 -24 0 -25 -3 -25 -57z"/>
<path d="M1510 1210 c0 -16 7 -20 35 -20 l35 0 0 -90 c0 -83 1 -90 20 -90 19
0 20 7 20 90 l0 90 35 0 c28 0 35 4 35 20 0 19 -7 20 -90 20 -83 0 -90 -1 -90
-20z"/>
<path d="M1890 1120 c0 -102 1 -110 19 -110 16 0 20 8 23 38 2 29 7 38 25 40
17 3 27 -6 43 -37 16 -32 26 -41 45 -41 l25 0 -20 41 c-20 37 -20 42 -6 58 9
10 16 34 16 54 0 50 -27 67 -107 67 l-63 0 0 -110z m119 56 c21 -25 2 -46 -40
-46 -37 0 -39 2 -39 30 0 27 3 30 34 30 18 0 39 -6 45 -14z"/>
<path d="M2280 1120 c0 -103 1 -110 20 -110 19 0 20 7 20 110 0 103 -1 110
-20 110 -19 0 -20 -7 -20 -110z"/>
<path d="M2910 1120 l0 -110 25 0 c23 0 25 4 25 40 l0 40 43 0 c54 0 77 22 77
73 0 50 -27 67 -107 67 l-63 0 0 -110z m125 50 c9 -29 -2 -40 -41 -40 -31 0
-34 2 -34 30 0 28 3 30 34 30 26 0 36 -5 41 -20z"/>
<path d="M3290 1120 l0 -110 75 0 c68 0 75 2 75 20 0 17 -7 20 -50 20 l-50 0
0 90 c0 89 0 90 -25 90 l-25 0 0 -110z"/>
<path d="M3661 1126 c-23 -58 -41 -107 -41 -110 0 -3 11 -6 24 -6 17 0 26 7
30 25 6 22 11 25 55 25 44 0 49 -3 55 -25 5 -18 13 -25 31 -25 l25 0 -26 68
c-14 37 -33 86 -42 110 -14 35 -21 42 -43 42 -26 0 -30 -8 -68 -104z m85 6 c6
-30 5 -32 -21 -32 -21 0 -26 4 -21 16 3 9 9 27 12 41 8 30 21 19 30 -25z"/>
<path d="M4040 1120 c0 -103 1 -110 20 -110 17 0 19 8 22 70 l3 70 53 -70 c34
-43 61 -70 73 -70 18 0 19 9 19 110 0 102 -1 110 -20 110 -17 0 -19 -8 -22
-67 l-3 -68 -53 68 c-33 41 -61 67 -73 67 -18 0 -19 -8 -19 -110z"/>
</g>
</svg>
